<mxfile host="app.diagrams.net" modified="2024-07-20T05:04:35.641Z" agent="Mozilla/5.0 (Windows NT 10.0; Win64; x64) AppleWebKit/537.36 (KHTML, like Gecko) Chrome/126.0.0.0 Safari/537.36" etag="QndSfQ8ikIoghKyhYgKX" version="24.7.2" type="device" pages="2">
  <diagram name="Page-1" id="yHPa205DMs6_MpyRVbWB">
    <mxGraphModel dx="503" dy="243" grid="1" gridSize="10" guides="1" tooltips="1" connect="1" arrows="1" fold="1" page="1" pageScale="1" pageWidth="827" pageHeight="1169" math="0" shadow="0">
      <root>
        <mxCell id="0" />
        <mxCell id="1" parent="0" />
        <mxCell id="BSfD8SeoDm34JQXMErqp-1" value="history" style="rounded=0;whiteSpace=wrap;html=1;" vertex="1" parent="1">
          <mxGeometry x="180" y="85" width="50" height="30" as="geometry" />
        </mxCell>
        <mxCell id="BSfD8SeoDm34JQXMErqp-8" style="rounded=0;orthogonalLoop=1;jettySize=auto;html=1;entryX=0;entryY=0.5;entryDx=0;entryDy=0;endArrow=none;endFill=0;" edge="1" parent="1" source="BSfD8SeoDm34JQXMErqp-2" target="BSfD8SeoDm34JQXMErqp-1">
          <mxGeometry relative="1" as="geometry" />
        </mxCell>
        <mxCell id="BSfD8SeoDm34JQXMErqp-2" value="&lt;b&gt;&lt;u style=&quot;background-color: rgb(255, 255, 255);&quot;&gt;id_history&lt;/u&gt;&lt;/b&gt;" style="ellipse;whiteSpace=wrap;html=1;" vertex="1" parent="1">
          <mxGeometry x="100" y="55" width="50" height="30" as="geometry" />
        </mxCell>
        <mxCell id="BSfD8SeoDm34JQXMErqp-9" style="rounded=0;orthogonalLoop=1;jettySize=auto;html=1;entryX=0;entryY=0.5;entryDx=0;entryDy=0;endArrow=none;endFill=0;" edge="1" parent="1" source="BSfD8SeoDm34JQXMErqp-6" target="BSfD8SeoDm34JQXMErqp-1">
          <mxGeometry relative="1" as="geometry" />
        </mxCell>
        <mxCell id="BSfD8SeoDm34JQXMErqp-6" value="&lt;span style=&quot;background-color: rgb(255, 255, 255);&quot;&gt;expression&lt;/span&gt;" style="ellipse;whiteSpace=wrap;html=1;" vertex="1" parent="1">
          <mxGeometry x="80" y="85" width="50" height="30" as="geometry" />
        </mxCell>
        <mxCell id="BSfD8SeoDm34JQXMErqp-12" style="edgeStyle=none;rounded=0;orthogonalLoop=1;jettySize=auto;html=1;entryX=0;entryY=0.5;entryDx=0;entryDy=0;endArrow=none;endFill=0;" edge="1" parent="1" source="BSfD8SeoDm34JQXMErqp-7" target="BSfD8SeoDm34JQXMErqp-1">
          <mxGeometry relative="1" as="geometry" />
        </mxCell>
        <mxCell id="BSfD8SeoDm34JQXMErqp-7" value="result" style="ellipse;whiteSpace=wrap;html=1;" vertex="1" parent="1">
          <mxGeometry x="100" y="115" width="50" height="30" as="geometry" />
        </mxCell>
      </root>
    </mxGraphModel>
  </diagram>
  <diagram id="_QxV7dOCyT0O7UKbh4yd" name="Page-2">
    <mxGraphModel dx="880" dy="426" grid="1" gridSize="10" guides="1" tooltips="1" connect="1" arrows="1" fold="1" page="1" pageScale="1" pageWidth="827" pageHeight="1169" math="0" shadow="0">
      <root>
        <mxCell id="0" />
        <mxCell id="1" parent="0" />
        <mxCell id="3nAl4tsP3VFSEVNbua6F-10" style="edgeStyle=none;rounded=0;orthogonalLoop=1;jettySize=auto;html=1;entryX=0;entryY=0.5;entryDx=0;entryDy=0;" edge="1" parent="1" source="3nAl4tsP3VFSEVNbua6F-1" target="3nAl4tsP3VFSEVNbua6F-2">
          <mxGeometry relative="1" as="geometry" />
        </mxCell>
        <mxCell id="3nAl4tsP3VFSEVNbua6F-1" value="User" style="shape=umlActor;verticalLabelPosition=bottom;verticalAlign=top;html=1;outlineConnect=0;" vertex="1" parent="1">
          <mxGeometry x="120" y="160" width="30" height="60" as="geometry" />
        </mxCell>
        <mxCell id="3nAl4tsP3VFSEVNbua6F-6" style="edgeStyle=none;rounded=0;orthogonalLoop=1;jettySize=auto;html=1;exitX=1;exitY=0.5;exitDx=0;exitDy=0;entryX=0;entryY=0.5;entryDx=0;entryDy=0;" edge="1" parent="1" source="3nAl4tsP3VFSEVNbua6F-2" target="3nAl4tsP3VFSEVNbua6F-4">
          <mxGeometry relative="1" as="geometry" />
        </mxCell>
        <mxCell id="3nAl4tsP3VFSEVNbua6F-7" style="edgeStyle=none;rounded=0;orthogonalLoop=1;jettySize=auto;html=1;exitX=1;exitY=0.5;exitDx=0;exitDy=0;entryX=0;entryY=0.5;entryDx=0;entryDy=0;" edge="1" parent="1" source="3nAl4tsP3VFSEVNbua6F-2" target="3nAl4tsP3VFSEVNbua6F-3">
          <mxGeometry relative="1" as="geometry" />
        </mxCell>
        <mxCell id="3nAl4tsP3VFSEVNbua6F-8" style="edgeStyle=none;rounded=0;orthogonalLoop=1;jettySize=auto;html=1;exitX=1;exitY=0.5;exitDx=0;exitDy=0;entryX=0;entryY=0.5;entryDx=0;entryDy=0;" edge="1" parent="1" source="3nAl4tsP3VFSEVNbua6F-2" target="3nAl4tsP3VFSEVNbua6F-5">
          <mxGeometry relative="1" as="geometry" />
        </mxCell>
        <mxCell id="3nAl4tsP3VFSEVNbua6F-2" value="Kalkulator" style="ellipse;whiteSpace=wrap;html=1;" vertex="1" parent="1">
          <mxGeometry x="200" y="170" width="80" height="40" as="geometry" />
        </mxCell>
        <mxCell id="3nAl4tsP3VFSEVNbua6F-3" value="Tambah riwayat" style="ellipse;whiteSpace=wrap;html=1;" vertex="1" parent="1">
          <mxGeometry x="340" y="170" width="80" height="40" as="geometry" />
        </mxCell>
        <mxCell id="3nAl4tsP3VFSEVNbua6F-4" value="Tampilkan riwayat" style="ellipse;whiteSpace=wrap;html=1;" vertex="1" parent="1">
          <mxGeometry x="340" y="120" width="80" height="40" as="geometry" />
        </mxCell>
        <mxCell id="3nAl4tsP3VFSEVNbua6F-5" value="Hapus&lt;div&gt;riwayat&lt;/div&gt;" style="ellipse;whiteSpace=wrap;html=1;" vertex="1" parent="1">
          <mxGeometry x="340" y="220" width="80" height="40" as="geometry" />
        </mxCell>
      </root>
    </mxGraphModel>
  </diagram>
</mxfile>
